<svg width="30" height="30" viewBox="0 0 30 30" fill="none" xmlns="http://www.w3.org/2000/svg">
<g clip-path="url(#clip0_1233_5185)">
<path d="M4.91992 26V15.4583C4.91992 12.6425 6.02044 9.99528 8.0187 8.00418C10.017 6.01316 12.6739 4.91663 15.4999 4.91663C18.326 4.91663 20.9828 6.01316 22.9812 8.00418C24.9794 9.99528 26.0799 12.6425 26.0799 15.4583V26" stroke="#2FA84F" stroke-width="1.75"/>
<path d="M7.67969 24.1667V16.375C7.67969 14.2938 8.49312 12.3372 9.97009 10.8655C11.4471 9.39386 13.4109 8.58337 15.4997 8.58337C17.5885 8.58337 19.5523 9.39386 21.0293 10.8655C22.5062 12.3372 23.3197 14.2938 23.3197 16.375V24.1667" stroke="#2FA84F" stroke-width="1.3"/>
<path d="M10.4404 22.3333V17.2917C10.4404 15.945 10.9668 14.6789 11.9225 13.7267C12.8782 12.7744 14.1489 12.25 15.5004 12.25C16.852 12.25 18.1227 12.7744 19.0784 13.7267C20.0341 14.6789 20.5604 15.945 20.5604 17.2917V22.3333" stroke="#2FA84F"/>
</g>
<defs>
<clipPath id="clip0_1233_5185">
<rect width="23" height="22" fill="white" transform="translate(4 4)"/>
</clipPath>
</defs>
</svg>
