<svg width="22" height="22" viewBox="0 0 22 22" fill="none" xmlns="http://www.w3.org/2000/svg">
<path d="M12.19 13.4935L13.8339 15.0805C14.1707 15.4049 14.1707 15.9318 13.8339 16.2565C13.4975 16.5812 12.9522 16.5812 12.6162 16.2565L10.9999 14.697L9.38504 16.2565C9.21665 16.4187 8.99601 16.4999 8.77537 16.4999C8.55509 16.4999 8.3348 16.4187 8.16642 16.2565C7.83 15.9318 7.83 15.4053 8.16606 15.0805L9.81013 13.4935C9.21155 13.3619 8.63426 13.133 8.10255 12.8109C7.70015 12.566 7.57927 12.0529 7.83282 11.6642C8.08565 11.2749 8.61737 11.1577 9.02047 11.4026C10.2243 12.1336 11.7751 12.1338 12.9797 11.4026C13.3828 11.1577 13.9143 11.2749 14.1677 11.6642C14.4212 12.0526 14.3 12.566 13.8976 12.8109C13.3659 13.1333 12.7886 13.3619 12.19 13.4935Z" fill="#2FA84F"/>
<path fill-rule="evenodd" clip-rule="evenodd" d="M8.05176 8.33873C8.05176 9.90364 9.37067 11.1766 10.9924 11.1766C12.6145 11.1766 13.933 9.90364 13.933 8.33873C13.933 6.7733 12.6145 5.5 10.9924 5.5C9.37067 5.5 8.05176 6.7733 8.05176 8.33873ZM12.21 8.33871C12.21 7.6906 11.6638 7.16358 10.9924 7.16358C10.3215 7.16358 9.77482 7.6906 9.77482 8.33871C9.77482 8.98632 10.3215 9.51367 10.9924 9.51367C11.6638 9.51367 12.21 8.98632 12.21 8.33871Z" fill="#2FA84F"/>
</svg>
