<svg width="17" height="17" viewBox="0 0 17 17" fill="none" xmlns="http://www.w3.org/2000/svg">
<g clip-path="url(#clip0)">
<path d="M13.2659 17H5.30638L5.30638 6.81799L6.74205 1.552C6.81055 1.09581 7.04588 0.682787 7.40092 0.395685C7.75596 0.108583 8.20449 -0.031435 8.65665 0.00371742C9.10882 0.0388699 9.53124 0.246607 9.8393 0.58526C10.1474 0.923914 10.3183 1.36853 10.3179 1.83001L10.3179 6.79998H14.7143C15.0583 6.80047 15.3976 6.87989 15.7072 7.03228C16.0168 7.18467 16.2887 7.40611 16.5026 7.68017C16.7164 7.95423 16.8669 8.27384 16.9426 8.61523C17.0184 8.95661 17.0175 9.31097 16.9401 9.65197L15.4887 15.207C15.3722 15.7177 15.0889 16.1731 14.6852 16.4988C14.2814 16.8244 13.7811 17.0011 13.2659 17ZM3.34106 17L3.34106 6.79998H1.52588e-05V17L3.34106 17Z" fill="#919699"/>
</g>
<defs>
<clipPath id="clip0">
<rect width="17" height="17" fill="white"/>
</clipPath>
</defs>
</svg>
