<svg width="22" height="22" viewBox="0 0 22 22" fill="none" xmlns="http://www.w3.org/2000/svg">
<mask id="mask0" mask-type="alpha" maskUnits="userSpaceOnUse" x="0" y="0" width="22" height="22">
<path fill-rule="evenodd" clip-rule="evenodd" d="M0 11C0 4.92487 4.92487 0 11 0C17.0751 0 22 4.92487 22 11C22 17.0751 17.0751 22 11 22C4.92487 22 0 17.0751 0 11Z" fill="white"/>
</mask>
<g mask="url(#mask0)">
<path fill-rule="evenodd" clip-rule="evenodd" d="M11.001 5.1333C9.4077 5.1333 9.20774 5.14027 8.58196 5.16875C7.9574 5.19735 7.53108 5.29622 7.15805 5.4413C6.77219 5.59115 6.44488 5.7916 6.11879 6.11781C5.79245 6.4439 5.592 6.77122 5.44167 7.15696C5.29622 7.5301 5.19722 7.95654 5.16911 8.58086C5.14112 9.20664 5.13379 9.40672 5.13379 11C5.13379 12.5933 5.14088 12.7927 5.16923 13.4185C5.19796 14.043 5.29684 14.4693 5.44179 14.8424C5.59176 15.2282 5.79221 15.5555 6.11842 15.8816C6.44439 16.208 6.77171 16.4089 7.15732 16.5588C7.53059 16.7038 7.95703 16.8027 8.58147 16.8313C9.20725 16.8598 9.40709 16.8668 11.0003 16.8668C12.5937 16.8668 12.793 16.8598 13.4188 16.8313C14.0434 16.8027 14.4702 16.7038 14.8435 16.5588C15.2292 16.4089 15.556 16.208 15.882 15.8816C16.2083 15.5555 16.4088 15.2282 16.5591 14.8425C16.7033 14.4693 16.8023 14.0429 16.8317 13.4186C16.8598 12.7928 16.8671 12.5933 16.8671 11C16.8671 9.40672 16.8598 9.20677 16.8317 8.58098C16.8023 7.95642 16.7033 7.5301 16.5591 7.15708C16.4088 6.77122 16.2083 6.4439 15.882 6.11781C15.5557 5.79147 15.2293 5.59103 14.8431 5.4413C14.4691 5.29622 14.0425 5.19735 13.418 5.16875C12.7922 5.14027 12.593 5.1333 10.9992 5.1333H11.001ZM10.4747 6.19056C10.5769 6.1904 10.6868 6.19045 10.8055 6.1905L11.001 6.19056C12.5674 6.19056 12.7531 6.19618 13.3717 6.22429C13.9437 6.25045 14.2541 6.34603 14.4609 6.42633C14.7347 6.53266 14.9299 6.65978 15.1351 6.86511C15.3404 7.07045 15.4675 7.26601 15.5741 7.53979C15.6544 7.74634 15.7501 8.05679 15.7762 8.6288C15.8043 9.24725 15.8104 9.43303 15.8104 10.9987C15.8104 12.5644 15.8043 12.7502 15.7762 13.3686C15.75 13.9406 15.6544 14.2511 15.5741 14.4576C15.4678 14.7314 15.3404 14.9264 15.1351 15.1316C14.9298 15.3369 14.7348 15.464 14.4609 15.5704C14.2544 15.651 13.9437 15.7464 13.3717 15.7725C12.7532 15.8006 12.5674 15.8067 11.001 15.8067C9.43447 15.8067 9.24881 15.8006 8.63036 15.7725C8.05835 15.7461 7.7479 15.6505 7.54098 15.5702C7.2672 15.4639 7.07164 15.3368 6.86631 15.1315C6.66097 14.9261 6.53386 14.731 6.42728 14.4571C6.34698 14.2506 6.25128 13.9401 6.22524 13.3681C6.19713 12.7497 6.19151 12.5639 6.19151 10.9972C6.19151 9.43058 6.19713 9.24578 6.22524 8.62733C6.2514 8.05532 6.34698 7.74488 6.42728 7.53807C6.53361 7.26429 6.66097 7.06874 6.86631 6.8634C7.07164 6.65807 7.2672 6.53095 7.54098 6.42437C7.74778 6.34371 8.05835 6.24837 8.63036 6.22209C9.17156 6.19765 9.3813 6.19032 10.4747 6.18909V6.19056ZM13.4286 7.86843C13.4286 7.47964 13.7439 7.16467 14.1326 7.16467V7.16443C14.5213 7.16443 14.8366 7.47976 14.8366 7.86843C14.8366 8.2571 14.5213 8.57244 14.1326 8.57244C13.7439 8.57244 13.4286 8.2571 13.4286 7.86843ZM11.0009 7.98722C9.33712 7.98728 7.9882 9.33624 7.9882 11C7.9882 12.6639 9.33718 14.0122 11.001 14.0122C12.6648 14.0122 14.0133 12.6639 14.0133 11C14.0133 9.3362 12.6647 7.98722 11.0009 7.98722ZM12.9566 11C12.9566 9.91994 12.081 9.04445 11.001 9.04445C9.92092 9.04445 9.04543 9.91994 9.04543 11C9.04543 12.08 9.92092 12.9556 11.001 12.9556C12.081 12.9556 12.9566 12.08 12.9566 11Z" fill="#2FA84F"/>
</g>
</svg>
