<svg width="24" height="24" viewBox="0 0 24 24" fill="none" xmlns="http://www.w3.org/2000/svg">
  <path class="3" fill-rule="evenodd" clip-rule="evenodd" d="M10 10C10.5523 10 11 10.4477 11 11V17C11 17.5523 10.5523 18 10 18C9.44772 18 9 17.5523 9 17V11C9 10.4477 9.44772 10 10 10Z" fill="#2FA84F" />
  <path class="4" fill-rule="evenodd" clip-rule="evenodd" d="M14 10C14.5523 10 15 10.4477 15 11V17C15 17.5523 14.5523 18 14 18C13.4477 18 13 17.5523 13 17V11C13 10.4477 13.4477 10 14 10Z" fill="#2FA84F" />
  <path class="2" fill-rule="evenodd" clip-rule="evenodd" d="M 15 5 L 9 5 L 15 5 Z M 17 5 L 7 5 L 5 5 C 4.448 5 4 5.448 4 6 L 4 20 C 4 20.796 4.316 21.559 4.879 22.121 C 5.441 22.684 6.204 23 7 23 L 17 23 C 17.796 23 18.559 22.684 19.121 22.121 C 19.684 21.559 20 20.796 20 20 L 20 6 C 20 5.448 19.552 5 19 5 L 17 5 Z M 6 7 L 6 20 C 6 20.265 6.105 20.52 6.293 20.707 C 6.48 20.895 6.735 21 7 21 L 17 21 C 17.265 21 17.52 20.895 17.707 20.707 C 17.895 20.52 18 20.265 18 20 L 18 7 L 6 7 Z" fill="#2FA84F" />
</svg>