<svg width="50" height="50" viewBox="0 0 50 50" fill="none" xmlns="http://www.w3.org/2000/svg">
<path d="M25 50C38.8071 50 50 38.8071 50 25C50 11.1929 38.8071 0 25 0C11.1929 0 0 11.1929 0 25C0 38.8071 11.1929 50 25 50Z" fill="#2FA84F"/>
<path fill-rule="evenodd" clip-rule="evenodd" d="M33.6776 38.9897C32.6283 38.9704 31.5873 38.8004 30.586 38.4848C23.8154 36.512 18.7375 32.2713 14.6334 26.6558C13.0876 24.5199 11.6732 22.353 11.1708 19.7277C10.8726 18.2754 10.9661 16.7693 11.4417 15.3654C11.9173 13.9616 12.7578 12.7111 13.876 11.7434C14.4498 11.3771 15.0953 11.139 15.7687 11.0452C16.4421 10.9514 17.1277 11.004 17.7791 11.1997C18.1013 11.3619 18.352 11.6388 18.4824 11.9764C19.3326 13.9957 20.1673 16.0307 21.0098 18.0501C21.0802 18.2419 21.1084 18.4468 21.0924 18.6506C21.0764 18.8544 21.0166 19.0523 20.9171 19.2306C20.4339 20.1397 19.8163 20.9699 19.0853 21.6928C18.8456 21.8964 18.6957 22.187 18.6682 22.5012C18.6407 22.8154 18.7379 23.1278 18.9384 23.3704C21.2323 27.3011 24.7694 30.347 28.9861 32.0227C29.2466 32.174 29.5542 32.2212 29.8477 32.155C30.1413 32.0888 30.3993 31.9141 30.5705 31.6655C31.3048 30.7723 32.0622 29.8713 32.7424 28.9393C32.9064 28.6634 33.1722 28.4638 33.4819 28.3838C33.7916 28.3038 34.1203 28.3499 34.3964 28.5121C35.8494 29.149 37.2561 29.8402 38.6937 30.5315L39.6443 30.9587C41.0974 31.7354 41.0664 31.7354 40.9505 33.3431C40.7186 36.4499 38.369 38.0033 35.5866 38.78C34.9666 38.9576 34.3211 39.0285 33.6776 38.9897Z" fill="white"/>
</svg>
