<svg width="50" height="50" viewBox="0 0 50 50" fill="none" xmlns="http://www.w3.org/2000/svg">
<path d="M38.9375 16.1094C38.8104 15.9265 38.6411 15.777 38.4439 15.6736C38.2466 15.5703 38.0274 15.5161 37.8047 15.5156H13.7734L12.6406 12.8437C12.5968 12.7408 12.524 12.6527 12.4311 12.5903C12.3381 12.5279 12.2291 12.4938 12.1172 12.4922H6.77344C6.61597 12.4922 6.46495 12.5547 6.3536 12.6661C6.24225 12.7774 6.17969 12.9284 6.17969 13.0859C6.17969 13.2434 6.24225 13.3944 6.3536 13.5058C6.46495 13.6171 6.61597 13.6797 6.77344 13.6797H11.7344L18.7656 30.3203C18.7851 30.3684 18.8072 30.4153 18.8317 30.4607L17.4782 33.8939C17.2486 33.8407 17.0126 33.8105 16.7734 33.8047C16.0965 33.799 15.4329 33.993 14.8655 34.3622C14.2981 34.7315 13.852 35.2597 13.5831 35.881C13.3141 36.5022 13.2341 37.189 13.3531 37.8554C13.4721 38.5218 13.7847 39.1385 14.2521 39.6283C14.7194 40.118 15.3207 40.4593 15.9808 40.6094C16.6409 40.7595 17.3307 40.7118 17.9638 40.4723C18.597 40.2328 19.1456 39.812 19.5411 39.2625C19.8722 38.8025 20.0837 38.2693 20.1591 37.7109H31.1451L31.1499 37.7382C31.2689 38.4047 31.5816 39.0213 32.0489 39.5111C32.5163 40.0009 33.1175 40.3421 33.7777 40.4922C34.4378 40.6424 35.1275 40.5947 35.7607 40.3551C36.3939 40.1156 36.9425 39.6948 37.3379 39.1454C37.7334 38.5959 37.9582 37.9421 37.9844 37.2656C38.0033 36.3392 37.6548 35.443 37.0152 34.7726C36.3755 34.1022 35.4966 33.7121 34.5703 33.6875C33.8933 33.6819 33.2297 33.8758 32.6623 34.2451C32.0949 34.6143 31.6489 35.1426 31.3799 35.7638C31.2729 36.011 31.1958 36.2686 31.1492 36.5312H20.1021C19.9635 35.9188 19.6614 35.3494 19.2206 34.8875C19.0245 34.6819 18.8057 34.5027 18.57 34.3524L19.8206 31.1799C19.9001 31.1945 19.981 31.2023 20.0625 31.2031H33.875C34.178 31.1991 34.4717 31.0984 34.7135 30.9157C34.9552 30.733 35.1322 30.4779 35.2188 30.1875L39.125 17.3906C39.1926 17.1768 39.2108 16.9504 39.1783 16.7285C39.1459 16.5065 39.0635 16.2949 38.9375 16.1094Z" fill="white"/>
</svg>
