<svg width="24" height="24" viewBox="0 0 24 24" fill="none" xmlns="http://www.w3.org/2000/svg">
  <path class="1" fill-rule="evenodd" clip-rule="evenodd" d="M2 6C2 5.44772 2.44772 5 3 5H21C21.5523 5 22 5.44772 22 6C22 6.55228 21.5523 7 21 7H3C2.44772 7 2 6.55228 2 6Z" fill="#2FA84F" />
  <path class="2" fill-rule="evenodd" clip-rule="evenodd" d="M 10 3 C 9.735 3 9.48 3.105 9.293 3.293 C 9.105 3.48 9 3.735 9 4 L 9 5 L 15 5 L 15 4 C 15 3.735 14.895 3.48 14.707 3.293 C 14.52 3.105 14.265 3 14 3 L 10 3 Z M 17 5 L 17 4 C 17 3.204 16.684 2.441 16.121 1.879 C 15.559 1.316 14.796 1 14 1 L 10 1 C 9.204 1 8.441 1.316 7.879 1.879 C 7.316 2.441 7 3.204 7 4 L 7 5 L 5 5 C 4.448 5 4 5.448 4 6 L 20 6 C 20 5.448 19.552 5 19 5 L 17 5 Z M 6 7 L 18 7 L 6 7 Z" fill="#2FA84F" />
</svg>