<svg width="30" height="30" viewBox="0 0 30 30" fill="none" xmlns="http://www.w3.org/2000/svg">
<path d="M23.6318 7.36824C21.4597 5.19622 18.5718 4 15.5 4C12.4282 4 9.54035 5.19622 7.36824 7.36824C5.19622 9.54035 4 12.4282 4 15.5V27H27V15.5C27 12.4282 25.8038 9.54035 23.6318 7.36824ZM25.6294 14.8262H16.1738V5.37057C21.236 5.70398 25.296 9.76397 25.6294 14.8262ZM7.36914 16.1738V20.2393H5.34766V16.1738H7.36914ZM8.7168 16.1738H10.7383V20.2393H8.7168V16.1738ZM18.9141 16.1738V18.1953H12.0859V16.1738H18.9141ZM10.7383 21.5869V25.6523H8.7168V21.5869H10.7383ZM12.0859 19.543H18.9141V25.6523H12.0859V19.543ZM20.2617 21.5869H22.2832V25.6523H20.2617V21.5869ZM20.2617 20.2393V16.1738H22.2832V20.2393H20.2617ZM23.6309 16.1738H25.6523V20.2393H23.6309V16.1738ZM14.8262 5.37057V14.8262H5.37057C5.70398 9.76397 9.76397 5.70398 14.8262 5.37057ZM5.34766 21.5869H7.36914V25.6523H5.34766V21.5869ZM23.6309 25.6523V21.5869H25.6523V25.6523H23.6309Z" fill="#2FA84F" stroke="#2FA84F" stroke-width="0.2"/>
</svg>
