<svg width="48" height="48" viewBox="0 0 48 48" fill="none" xmlns="http://www.w3.org/2000/svg">
<g clip-path="url(#clip0)">
<path fill-rule="evenodd" clip-rule="evenodd" d="M19 33C19 31.8954 19.8954 31 21 31C22.1046 31 23 31.8954 23 33C23 34.1046 22.1046 35 21 35C19.8954 35 19 34.1046 19 33Z" fill="white"/>
<path fill-rule="evenodd" clip-rule="evenodd" d="M30 33C30 31.8954 30.8954 31 32 31C33.1046 31 34 31.8954 34 33C34 34.1046 33.1046 35 32 35C30.8954 35 30 34.1046 30 33Z" fill="white"/>
<path fill-rule="evenodd" clip-rule="evenodd" d="M12 13C12 12.4477 12.4477 12 13 12H17C17.4766 12 17.887 12.3364 17.9806 12.8037L18.8204 17H35C35.298 17 35.5805 17.1329 35.7705 17.3626C35.9605 17.5922 36.0381 17.8946 35.9823 18.1873L34.3809 26.5848C34.2437 27.2754 33.868 27.8958 33.3195 28.3373C32.7738 28.7766 32.0916 29.011 31.3914 29H21.6886C20.9884 29.011 20.3062 28.7766 19.7605 28.3373C19.2122 27.8959 18.8366 27.2759 18.6993 26.5857C18.6993 26.5854 18.6994 26.5859 18.6993 26.5857L17.0288 18.2392C17.022 18.2116 17.0164 18.1835 17.012 18.1551L16.1803 14H13C12.4477 14 12 13.5523 12 13ZM19.2207 19L20.6608 26.1952C20.7066 26.4254 20.8318 26.6322 21.0146 26.7793C21.1974 26.9265 21.4262 27.0047 21.6608 27.0002L21.68 27H31.4L31.4192 27.0002C31.6538 27.0047 31.8826 26.9265 32.0654 26.7793C32.2474 26.6328 32.3723 26.4273 32.4185 26.1984L33.7913 19H19.2207Z" fill="white"/>
</g>
<defs>
<clipPath id="clip0">
<rect width="24" height="24" fill="white" transform="translate(12 12)"/>
</clipPath>
</defs>
</svg>
