<svg width="17" height="17" viewBox="0 0 17 17" fill="none" xmlns="http://www.w3.org/2000/svg">
<g clip-path="url(#clip0)">
<path d="M13.2659 1.90735e-05H5.30637L5.30637 10.182L6.74203 15.448C6.81054 15.9042 7.04588 16.3172 7.40092 16.6043C7.75595 16.8914 8.20448 17.0314 8.65664 16.9963C9.10881 16.9611 9.53123 16.7534 9.83929 16.4148C10.1474 16.0761 10.3183 15.6315 10.3179 15.17V10.2H14.7143C15.0583 10.1997 15.3978 10.1204 15.7075 9.96807C16.0173 9.81575 16.2892 9.59431 16.5032 9.32022C16.7172 9.04614 16.8677 8.72647 16.9435 8.38502C17.0193 8.04356 17.0185 7.6891 16.9411 7.34802L15.4897 1.79302C15.3731 1.28215 15.0897 0.826637 14.6858 0.500946C14.2818 0.175255 13.7813 -0.00134468 13.2659 1.90735e-05ZM3.34105 1.90735e-05L3.34105 10.2H1.14441e-05L1.14441e-05 1.90735e-05L3.34105 1.90735e-05Z" fill="#919699"/>
</g>
<defs>
<clipPath id="clip0">
<rect width="17" height="17" fill="white"/>
</clipPath>
</defs>
</svg>
