<svg width="22" height="22" viewBox="0 0 22 22" fill="none" xmlns="http://www.w3.org/2000/svg">
<path d="M16.6219 8.28344C16.487 7.76507 16.0894 7.35687 15.5845 7.21833C14.6696 6.96655 11.0005 6.96655 11.0005 6.96655C11.0005 6.96655 7.33132 6.96655 6.41632 7.21833C5.91146 7.35687 5.51386 7.76507 5.37892 8.28344C5.13379 9.22294 5.13379 11.1832 5.13379 11.1832C5.13379 11.1832 5.13379 13.1434 5.37892 14.083C5.51386 14.6014 5.91146 15.0096 6.41632 15.1482C7.33132 15.3999 11.0005 15.3999 11.0005 15.3999C11.0005 15.3999 14.6696 15.3999 15.5845 15.1482C16.0894 15.0096 16.487 14.6014 16.6219 14.083C16.8671 13.1434 16.8671 11.1832 16.8671 11.1832C16.8671 11.1832 16.8671 9.22294 16.6219 8.28344Z" fill="#2FA84F"/>
<path d="M9.90039 13.2001V9.53345L12.8337 11.3669L9.90039 13.2001Z" fill="#F1F3F4"/>
</svg>
