<svg width="40" height="40" viewBox="0 0 40 40" fill="none" xmlns="http://www.w3.org/2000/svg">
<path d="M20 40C8.956 40 0 31.044 0 20C0 8.956 8.956 0 20 0C31.044 0 40 8.956 40 20C40 31.044 31.044 40 20 40Z" fill="url(#paint0_linear_1071_5436)"/>
<path d="M19.9998 8.8079C23.6438 8.8079 24.0758 8.8199 25.5158 8.8879C26.8478 8.9479 27.5718 9.1719 28.0518 9.3599C28.6878 9.6079 29.1438 9.9039 29.6198 10.3799C30.0958 10.8559 30.3918 11.3119 30.6398 11.9479C30.8278 12.4279 31.0478 13.1519 31.1118 14.4839C31.1758 15.9239 31.1918 16.3559 31.1918 19.9999C31.1918 23.6439 31.1798 24.0759 31.1118 25.5159C31.0518 26.8479 30.8278 27.5719 30.6398 28.0519C30.3918 28.6879 30.0958 29.1439 29.6198 29.6199C29.1438 30.0959 28.6878 30.3919 28.0518 30.6399C27.5718 30.8279 26.8478 31.0479 25.5158 31.1119C24.0758 31.1759 23.6438 31.1919 19.9998 31.1919C16.3558 31.1919 15.9238 31.1799 14.4838 31.1119C13.1518 31.0519 12.4278 30.8279 11.9478 30.6399C11.3118 30.3919 10.8558 30.0959 10.3798 29.6199C9.90375 29.1439 9.60775 28.6879 9.35975 28.0519C9.17175 27.5719 8.95175 26.8479 8.88775 25.5159C8.82375 24.0759 8.80775 23.6439 8.80775 19.9999C8.80775 16.3559 8.81975 15.9239 8.88775 14.4839C8.94775 13.1519 9.17175 12.4279 9.35975 11.9479C9.60775 11.3119 9.90375 10.8559 10.3798 10.3799C10.8558 9.9039 11.3118 9.6079 11.9478 9.3599C12.4278 9.1719 13.1518 8.9519 14.4838 8.8879C15.9238 8.8199 16.3558 8.8079 19.9998 8.8079ZM19.9998 6.3479C16.2918 6.3479 15.8278 6.3639 14.3718 6.4319C12.9198 6.4999 11.9278 6.7279 11.0558 7.0679C10.1598 7.4119 9.39575 7.8799 8.63975 8.6399C7.87975 9.3999 7.41575 10.1599 7.06375 11.0599C6.72775 11.9279 6.49575 12.9199 6.42775 14.3759C6.35975 15.8319 6.34375 16.2959 6.34375 20.0039C6.34375 23.7119 6.35975 24.1759 6.42775 25.6319C6.49575 27.0839 6.72375 28.0759 7.06375 28.9479C7.41175 29.8399 7.87975 30.6039 8.63975 31.3599C9.39975 32.1199 10.1598 32.5839 11.0598 32.9359C11.9278 33.2719 12.9198 33.5039 14.3758 33.5719C15.8318 33.6399 16.2958 33.6559 20.0038 33.6559C23.7118 33.6559 24.1758 33.6399 25.6318 33.5719C27.0838 33.5039 28.0758 33.2759 28.9478 32.9359C29.8398 32.5879 30.6038 32.1199 31.3598 31.3599C32.1198 30.5999 32.5838 29.8399 32.9358 28.9399C33.2718 28.0719 33.5038 27.0799 33.5718 25.6239C33.6398 24.1679 33.6558 23.7039 33.6558 19.9959C33.6558 16.2879 33.6398 15.8239 33.5718 14.3679C33.5038 12.9159 33.2758 11.9239 32.9358 11.0519C32.5878 10.1599 32.1198 9.3959 31.3598 8.6399C30.5998 7.8799 29.8398 7.4159 28.9398 7.0639C28.0718 6.7279 27.0798 6.4959 25.6238 6.4279C24.1718 6.3639 23.7078 6.3479 19.9998 6.3479Z" fill="white"/>
<path d="M19.9993 12.9878C16.1273 12.9878 12.9873 16.1278 12.9873 19.9998C12.9873 23.8718 16.1273 27.0118 19.9993 27.0118C23.8713 27.0118 27.0113 23.8718 27.0113 19.9998C27.0113 16.1278 23.8713 12.9878 19.9993 12.9878ZM19.9993 24.5518C17.4873 24.5518 15.4473 22.5158 15.4473 19.9998C15.4473 17.4838 17.4873 15.4478 19.9993 15.4478C22.5113 15.4478 24.5513 17.4838 24.5513 19.9998C24.5513 22.5158 22.5113 24.5518 19.9993 24.5518Z" fill="white"/>
<path d="M27.2875 14.3518C28.1932 14.3518 28.9275 13.6175 28.9275 12.7118C28.9275 11.806 28.1932 11.0718 27.2875 11.0718C26.3817 11.0718 25.6475 11.806 25.6475 12.7118C25.6475 13.6175 26.3817 14.3518 27.2875 14.3518Z" fill="white"/>
<defs>
<linearGradient id="paint0_linear_1071_5436" x1="5.85786" y1="34.1421" x2="34.1421" y2="5.85786" gradientUnits="userSpaceOnUse">
<stop stop-color="#FFD521"/>
<stop offset="0.0551048" stop-color="#FFD020"/>
<stop offset="0.1241" stop-color="#FEC01E"/>
<stop offset="0.2004" stop-color="#FCA71B"/>
<stop offset="0.2821" stop-color="#FA8316"/>
<stop offset="0.3681" stop-color="#F85510"/>
<stop offset="0.4563" stop-color="#F51E09"/>
<stop offset="0.5" stop-color="#F30005"/>
<stop offset="0.5035" stop-color="#F20007"/>
<stop offset="0.5966" stop-color="#E1003B"/>
<stop offset="0.6879" stop-color="#D30067"/>
<stop offset="0.7757" stop-color="#C70088"/>
<stop offset="0.8589" stop-color="#BF00A0"/>
<stop offset="0.9357" stop-color="#BB00AF"/>
<stop offset="1" stop-color="#B900B4"/>
</linearGradient>
</defs>
</svg>
