<svg width="40" height="40" viewBox="0 0 40 40" fill="none" xmlns="http://www.w3.org/2000/svg">
<path d="M20 40C8.956 40 0 31.044 0 20C0 8.956 8.956 0 20 0C31.044 0 40 8.956 40 20C40 31.044 31.044 40 20 40Z" fill="#FF0000"/>
<path d="M32.7277 13.5639C32.4237 12.4119 31.5237 11.5079 30.3797 11.1999C28.3077 10.6399 20.0037 10.6399 20.0037 10.6399C20.0037 10.6399 11.6957 10.6399 9.62773 11.1999C8.48373 11.5079 7.58373 12.4119 7.27973 13.5639C6.71973 15.6479 6.71973 19.9999 6.71973 19.9999C6.71973 19.9999 6.71973 24.3519 7.27573 26.4359C7.57973 27.5879 8.47973 28.4919 9.62373 28.7999C11.6957 29.3599 19.9997 29.3599 19.9997 29.3599C19.9997 29.3599 28.3077 29.3599 30.3757 28.7999C31.5197 28.4919 32.4197 27.5879 32.7237 26.4359C33.2797 24.3519 33.2797 19.9999 33.2797 19.9999C33.2797 19.9999 33.2797 15.6479 32.7277 13.5639ZM17.2837 23.9479V16.0519L24.2237 19.9999L17.2837 23.9479Z" fill="white"/>
</svg>
