<svg width="40" height="40" viewBox="0 0 40 40" fill="none" xmlns="http://www.w3.org/2000/svg">
<g clip-path="url(#clip0_1071_5442)">
<circle cx="20" cy="20" r="20" fill="#F7931E"/>
<path d="M20.2618 5.9895C16.1994 5.9895 12.9062 9.28277 12.9062 13.3451C12.9062 17.4075 16.1994 20.701 20.2618 20.701C24.3243 20.701 27.6174 17.4075 27.6174 13.3451C27.6174 9.28277 24.3243 5.9895 20.2618 5.9895ZM20.2618 16.3859C18.5826 16.3859 17.2212 15.0244 17.2212 13.3452C17.2212 11.6659 18.5826 10.3046 20.2618 10.3046C21.9411 10.3046 23.3025 11.6659 23.3025 13.3452C23.3025 15.0244 21.9411 16.3859 20.2618 16.3859Z" fill="white"/>
<path d="M22.8588 26.5538C25.8035 25.9539 27.5681 24.5594 27.6615 24.4845C28.5232 23.7935 28.6616 22.5347 27.9706 21.6729C27.2796 20.8113 26.021 20.6728 25.1591 21.3638C25.1409 21.3785 23.2588 22.8223 20.162 22.8244C17.0654 22.8223 15.1435 21.3785 15.1253 21.3638C14.2634 20.6728 13.0048 20.8113 12.3138 21.6729C11.6228 22.5347 11.7612 23.7935 12.6229 24.4845C12.7175 24.5604 14.555 25.9913 17.5822 26.5771L13.3632 30.9863C12.5965 31.7815 12.6195 33.0476 13.4147 33.8143C13.8028 34.1885 14.303 34.3745 14.8028 34.3745C15.3268 34.3745 15.8502 34.1698 16.2427 33.7627L20.1621 29.5875L24.4775 33.7898C25.2594 34.5704 26.5255 34.5692 27.3059 33.7876C28.0864 33.0059 28.0854 31.7396 27.3037 30.9592L22.8588 26.5538Z" fill="white"/>
<path d="M20.1616 22.8242C20.1566 22.8242 20.1664 22.8243 20.1616 22.8244C20.1568 22.8243 20.1665 22.8242 20.1616 22.8242Z" fill="white"/>
</g>
<defs>
<clipPath id="clip0_1071_5442">
<rect width="40" height="40" fill="white"/>
</clipPath>
</defs>
</svg>
