<svg width="22" height="22" viewBox="0 0 22 22" fill="none" xmlns="http://www.w3.org/2000/svg">
<path d="M11.5759 14.6099C11.5759 14.6099 11.7876 14.5868 11.8961 14.4724C11.9954 14.3676 11.9919 14.1699 11.9919 14.1699C11.9919 14.1699 11.9787 13.2466 12.4155 13.1103C12.8459 12.9762 13.3985 14.0032 13.985 14.398C14.428 14.6966 14.7643 14.6313 14.7643 14.6313L16.3316 14.6099C16.3316 14.6099 17.1511 14.5603 16.7626 13.9277C16.7304 13.8759 16.5359 13.4596 15.5976 12.6044C14.6146 11.7093 14.7465 11.8541 15.9299 10.3056C16.6507 9.36256 16.9388 8.78685 16.8487 8.54068C16.7632 8.30522 16.2329 8.36774 16.2329 8.36774L14.4688 8.37845C14.4688 8.37845 14.3379 8.36098 14.241 8.41788C14.1463 8.47365 14.0849 8.60377 14.0849 8.60377C14.0849 8.60377 13.806 9.33327 13.4335 9.95404C12.6479 11.2632 12.334 11.3325 12.2054 11.2514C11.9064 11.0615 11.981 10.4898 11.981 10.0836C11.981 8.81445 12.1773 8.2855 11.5994 8.14861C11.4077 8.10299 11.2666 8.07313 10.7759 8.06806C10.1463 8.06186 9.61379 8.07031 9.31193 8.21509C9.11107 8.31141 8.95612 8.5266 9.05081 8.53899C9.16731 8.5542 9.43129 8.60884 9.57132 8.79586C9.75209 9.03753 9.74578 9.57944 9.74578 9.57944C9.74578 9.57944 9.84965 11.0734 9.50303 11.2587C9.26544 11.386 8.93948 11.1263 8.23878 9.93827C7.8801 9.32989 7.60923 8.65729 7.60923 8.65729C7.60923 8.65729 7.55701 8.53167 7.46347 8.46407C7.35041 8.38239 7.1926 8.35704 7.1926 8.35704L5.5163 8.36774C5.5163 8.36774 5.26437 8.3745 5.17197 8.4821C5.08991 8.5773 5.16566 8.77502 5.16566 8.77502C5.16566 8.77502 6.47812 11.7893 7.96446 13.3086C9.32742 14.7011 10.8746 14.6099 10.8746 14.6099H11.5759Z" fill="#2FA84F"/>
</svg>
