<svg width="160" height="110" viewBox="0 0 160 110" fill="none" xmlns="http://www.w3.org/2000/svg">
<path fill-rule="evenodd" clip-rule="evenodd" d="M22.866 87.8772H140.356C146.181 87.8772 150.953 92.6487 150.953 98.4736C150.953 104.299 146.181 109.07 140.356 109.07H22.866C17.041 109.07 12.2695 104.299 12.2695 98.4736C12.2695 92.6487 16.9791 87.8772 22.866 87.8772Z" fill="#2FA84F"/>
<path d="M132.921 98.1643C133.292 97.7305 133.726 97.1728 134.16 96.5531C134.594 95.9334 134.966 95.3138 135.275 94.6321C135.585 94.0124 135.709 93.4547 135.709 92.959C135.709 92.5872 135.585 92.2774 135.399 92.0295C135.213 91.7816 134.966 91.7196 134.656 91.7196C133.726 91.7196 132.735 92.2774 131.681 93.4547C131.124 94.0124 130.628 94.6941 130.132 95.5616C129.636 96.4292 129.388 97.1108 129.388 97.7305C129.388 98.0403 129.512 98.2882 129.698 98.4741C129.884 98.722 130.194 98.7839 130.69 98.7839C131.247 98.7839 132.053 98.598 132.921 98.1643ZM137.878 103.927L137.258 105.724C135.647 106.778 134.408 107.335 133.478 107.335C133.107 107.335 132.735 107.212 132.487 106.964C132.239 106.716 132.115 106.406 132.115 105.91C132.115 105.291 132.301 104.485 132.735 103.617C133.168 102.688 133.602 101.82 134.16 101.015C134.718 100.147 135.337 99.1557 136.143 98.0403C135.647 98.1643 135.275 98.3502 134.966 98.5361C134.656 98.722 134.346 98.9079 134.16 99.1557C133.912 99.3416 133.726 99.5895 133.602 99.8374C133.416 100.085 133.23 100.333 133.045 100.581C132.363 101.449 131.619 102.316 130.752 103.184C129.884 103.989 128.955 104.733 128.025 105.352C127.096 105.972 126.166 106.468 125.361 106.778C124.493 107.15 123.811 107.273 123.192 107.273C122.51 107.273 121.89 107.026 121.457 106.592C121.023 106.158 120.775 105.6 120.775 104.981C120.775 104.485 120.837 104.051 121.023 103.617C121.209 103.184 121.395 102.812 121.643 102.502C121.89 102.192 122.076 102.068 122.2 102.068C122.324 102.068 122.386 102.13 122.51 102.192L123.687 102.936C123.873 103.06 123.935 103.184 123.935 103.37C123.935 103.493 123.873 103.679 123.687 103.865C123.44 104.175 123.254 104.485 123.254 104.857C123.254 105.229 123.44 105.476 123.873 105.476H124.183C124.741 105.414 125.546 105.043 126.538 104.423C127.529 103.803 128.521 103.06 129.512 102.192C130.504 101.325 131.309 100.581 131.929 99.8993C131.062 100.147 130.504 100.333 130.194 100.457C129.884 100.519 129.574 100.581 129.265 100.581C128.707 100.581 128.211 100.395 127.715 100.085C127.22 99.7754 127.034 99.1557 127.034 98.3502C127.034 97.5446 127.282 96.6151 127.715 95.6236C128.149 94.6321 128.831 93.7026 129.574 92.7731C130.38 91.9055 131.247 91.1619 132.239 90.6042C133.23 90.0465 134.16 89.7987 135.151 89.7987C136.081 89.7987 136.763 90.1085 137.134 90.6662C137.568 91.2859 137.754 91.9055 137.754 92.6492C137.754 93.2688 137.568 93.8885 137.258 94.5702C136.949 95.2518 136.515 96.0574 135.957 96.8629C136.701 96.4911 137.382 95.9954 138.002 95.4997L139.489 96.3052C137.754 99.2177 136.577 101.201 135.957 102.316C135.337 103.431 135.028 104.175 135.028 104.609C135.028 104.981 135.151 105.167 135.461 105.167C135.709 105.167 136.143 105.043 136.639 104.795C137.072 104.423 137.506 104.237 137.878 103.927ZM116.871 101.634L118.172 99.2177C117.863 98.8459 117.491 98.66 117.057 98.66C116.499 98.66 115.818 98.9698 114.95 99.5895C114.083 100.209 113.401 100.891 112.719 101.758C112.1 102.626 111.79 103.37 111.79 103.989C111.79 104.733 112.038 105.043 112.533 105.043C112.843 105.043 113.277 104.857 113.897 104.423C114.516 103.989 115.136 103.555 115.694 102.998C116.313 102.502 116.685 102.068 116.871 101.634ZM118.978 97.7305L120.775 98.66L118.544 102.998C118.172 103.741 117.986 104.237 117.986 104.485C117.986 104.795 118.11 104.919 118.296 104.919C118.482 104.919 118.854 104.795 119.474 104.485C120.093 104.175 120.589 103.927 120.961 103.741L120.403 105.476C119.907 105.848 119.288 106.22 118.668 106.592C118.048 106.902 117.491 107.088 117.119 107.088C116.685 107.088 116.375 106.964 116.127 106.716C115.88 106.468 115.756 106.22 115.756 105.91C115.756 105.724 115.756 105.538 115.818 105.352C115.88 105.167 115.942 104.981 116.003 104.857C116.065 104.733 116.127 104.609 116.189 104.361C116.251 104.237 116.313 104.113 116.313 104.051H116.189C116.127 104.113 116.003 104.237 115.88 104.361C115.446 104.919 114.702 105.538 113.773 106.158C112.843 106.778 111.976 107.088 111.232 107.088C110.736 107.088 110.302 106.902 109.869 106.468C109.435 106.034 109.249 105.414 109.249 104.547C109.249 103.679 109.683 102.626 110.488 101.511C111.294 100.395 112.285 99.4036 113.463 98.598C114.64 97.7925 115.632 97.3587 116.499 97.3587C117.429 97.3587 118.172 97.6685 118.668 98.2882L118.978 97.7305ZM102.557 97.1728L104.23 98.1643L101.441 103.122L101.565 103.184C101.751 103.06 102.061 102.688 102.619 102.13C103.114 101.634 103.61 101.139 104.168 100.643C104.725 100.147 105.345 99.6515 106.089 99.0938C106.832 98.5361 107.7 97.9784 108.691 97.3587L109.559 98.9698C108.505 99.4656 107.39 100.085 106.275 100.767C105.097 101.511 104.354 102.068 103.982 102.564V102.688C104.23 102.626 104.416 102.626 104.601 102.626C105.097 102.626 105.283 102.936 105.283 103.493C105.283 103.555 105.283 103.679 105.221 103.741C105.221 103.803 105.159 103.927 105.035 104.051C104.973 104.175 104.911 104.237 104.911 104.299C104.787 104.547 104.725 104.795 104.725 104.919V105.105C104.725 105.414 104.849 105.6 105.097 105.6C105.345 105.6 105.717 105.476 106.213 105.229C106.708 104.981 107.204 104.733 107.762 104.423C108.258 104.113 108.629 103.865 108.753 103.741L108.196 105.476C106.708 106.778 105.345 107.397 103.92 107.397C103.424 107.397 103.052 107.273 102.804 106.964C102.557 106.654 102.433 106.282 102.433 105.91C102.433 105.476 102.495 105.105 102.68 104.733C102.68 104.671 102.742 104.547 102.804 104.485C102.866 104.361 102.928 104.299 102.928 104.237C102.928 104.175 102.928 104.113 102.928 104.051V103.927C102.928 103.803 102.804 103.803 102.742 103.803C102.495 103.803 101.999 104.175 101.255 104.981C100.512 105.786 99.892 106.53 99.3342 107.273L97.5372 106.716L102.557 97.1728ZM98.1569 101.139L96.5457 100.209C96.7936 99.7754 96.9175 99.4656 96.9175 99.3416C96.9175 99.2797 96.8555 99.1557 96.7936 99.0938C96.6696 99.0318 96.5457 98.9698 96.4218 98.9698C95.926 98.9698 95.3683 99.2797 94.7486 99.9613C94.129 100.643 93.5713 101.387 93.0755 102.254C92.5798 103.122 92.3939 103.865 92.3939 104.485C92.3939 104.671 92.4558 104.919 92.6418 105.105C92.8277 105.291 93.0755 105.414 93.3854 105.414C94.2529 105.414 95.8641 104.919 98.1569 103.865L97.5992 105.6C96.6696 106.034 95.926 106.344 95.3064 106.53C94.6867 106.778 94.129 106.902 93.6952 107.026C93.1995 107.15 92.7657 107.212 92.2699 107.212C90.5968 107.212 89.7912 106.406 89.7912 104.795C89.7912 103.927 90.0391 103.06 90.5349 102.192C91.0306 101.263 91.7122 100.457 92.5178 99.7135C93.3234 98.9698 94.1909 98.3502 95.0585 97.9164C95.926 97.4826 96.7316 97.2348 97.4752 97.2348C98.0329 97.2348 98.5287 97.4207 98.7765 97.7925C99.0864 98.1643 99.2103 98.598 99.2103 99.1557C99.2103 99.4656 99.0864 99.8374 98.9005 100.209C98.7146 100.519 98.4667 100.829 98.1569 101.139ZM82.4171 96.9869L84.1522 97.7925L82.1073 101.758C82.3552 101.696 82.9129 101.572 83.7184 101.449C84.524 101.325 85.1437 101.263 85.5155 101.263L87.1886 97.7925L88.9237 98.5361L86.6309 103.246C86.6309 103.308 86.5689 103.37 86.507 103.493C86.445 103.617 86.445 103.741 86.383 103.741C86.1971 104.113 86.1352 104.361 86.1352 104.547C86.1352 104.795 86.2591 104.981 86.507 104.981C86.8168 104.981 87.3745 104.795 88.1181 104.361C88.1801 104.299 88.6139 104.113 89.2955 103.803L88.7998 105.538C87.0027 106.592 85.7634 107.15 85.1437 107.15C84.7099 107.15 84.3381 107.026 84.0283 106.778C83.7184 106.53 83.5945 106.158 83.5945 105.662C83.5945 105.414 83.6565 105.105 83.8424 104.795C83.9663 104.485 84.3381 103.803 84.8339 102.75C83.8424 102.812 82.665 103.06 81.3637 103.555L79.5047 107.397L77.4597 106.778L82.4171 96.9869ZM72.5023 102.626C74.6712 102.068 76.0964 101.139 76.84 99.8993C76.964 99.7134 77.026 99.5895 77.026 99.4036C77.026 99.0938 76.902 98.9698 76.5922 98.9698C76.1584 98.9698 75.6627 99.1557 75.105 99.5895C74.5473 100.023 74.0515 100.519 73.5558 101.077C73.06 101.696 72.6882 102.192 72.5023 102.626ZM69.218 103.927L69.7758 103.555C70.0236 102.812 70.3954 102.068 70.9531 101.325C71.5108 100.581 72.1305 99.8994 72.8741 99.3416C73.6177 98.722 74.3614 98.2882 75.1669 97.9164C75.9725 97.5446 76.7161 97.4206 77.3978 97.4206C78.0794 97.4206 78.5751 97.6066 78.9469 97.9164C79.2568 98.2262 79.4427 98.598 79.4427 99.0318C79.4427 99.8374 78.9469 100.705 77.9555 101.634C76.964 102.564 75.043 103.37 72.0686 104.113C72.0066 104.237 72.0066 104.361 72.0066 104.423C72.0066 104.733 72.1305 104.981 72.4404 105.167C72.6882 105.352 73.06 105.476 73.5558 105.476C73.9276 105.476 74.3614 105.414 74.8571 105.229C75.3528 105.105 75.9105 104.919 76.4063 104.671C76.964 104.423 77.4597 104.175 77.8935 103.927L77.3358 105.538C76.5922 106.034 75.7866 106.406 74.7951 106.654C73.8036 106.964 72.9981 107.088 72.2545 107.088C71.7587 107.088 71.3249 106.964 70.8912 106.778C70.5194 106.592 70.2095 106.282 69.9617 105.972C69.7138 105.662 69.6518 105.291 69.6518 104.919L68.6603 105.538L69.218 103.927ZM67.483 96.801L69.218 97.6685L67.6689 100.891C67.421 101.449 67.1112 102.13 66.8633 102.812C66.6154 103.555 66.4295 103.989 66.4295 104.237C66.4295 104.485 66.5535 104.671 66.8633 104.733H67.1112C67.2971 104.671 67.6069 104.547 68.0407 104.361C68.4744 104.113 68.9082 103.927 69.218 103.741L68.6603 105.476C67.0492 106.53 65.9338 107.088 65.438 107.088C65.0662 107.088 64.7564 106.964 64.5085 106.716C64.2607 106.468 64.0748 106.158 64.0748 105.724C64.0748 104.981 64.3846 104.051 65.0662 102.998C65.1902 102.812 65.3141 102.626 65.3141 102.502L65.0662 102.316C64.3846 103.246 63.7649 104.051 63.2072 104.733C62.6495 105.352 62.0918 105.91 61.4721 106.406C60.8524 106.84 60.2328 107.088 59.6131 107.088C58.9934 107.088 58.5596 106.902 58.2498 106.592C57.94 106.282 57.7541 105.91 57.7541 105.476C57.7541 105.043 57.816 104.671 57.94 104.423L59.9229 103.493C59.861 103.803 59.799 104.051 59.799 104.299C59.799 104.795 59.9849 105.043 60.3567 105.043C60.6665 105.043 61.1623 104.795 61.782 104.237C62.4016 103.679 63.0213 102.998 63.7649 102.13C64.4466 101.263 65.1282 100.395 65.8098 99.4036C66.4295 98.4121 67.0492 97.5446 67.483 96.801ZM57.4442 96.677L57.878 98.1643C57.0724 98.4121 56.3288 98.7839 55.6472 99.2797C54.9655 99.7754 54.3459 100.271 53.8501 100.891C53.3544 101.449 52.9826 102.068 52.6727 102.626C52.4249 103.184 52.3009 103.679 52.3009 104.175C52.3009 105.043 52.6727 105.538 53.4163 105.538C53.9741 105.538 54.4698 105.291 55.0275 104.795C55.5852 104.299 56.019 103.679 56.3288 102.874C56.7006 102.068 56.8246 101.201 56.8246 100.209C56.8246 100.023 56.8246 99.7134 56.7626 99.3416L59.0554 98.722C59.1174 99.0938 59.1793 99.4656 59.1793 99.8993C59.1793 101.201 58.8695 102.378 58.1878 103.493C57.5062 104.609 56.7006 105.476 55.7091 106.158C54.7177 106.84 53.7262 107.15 52.7967 107.15C50.9996 107.15 50.0701 106.22 50.0701 104.423C50.0701 103.493 50.3799 102.502 50.9376 101.572C51.4954 100.581 52.3629 99.7134 53.5403 98.8459C54.5937 97.9164 55.895 97.2347 57.4442 96.677ZM43.3157 96.801L44.8648 97.6685L42.634 102.13C42.2002 102.998 41.9524 103.555 41.9524 103.803V104.051C41.9524 104.175 42.0143 104.175 42.1383 104.175C42.4481 104.175 43.2537 103.555 44.555 102.254C44.9268 101.882 45.2366 101.511 45.5465 101.139C45.8563 100.829 46.1662 100.333 46.5999 99.7754C47.0337 99.2177 47.4675 98.4741 47.9632 97.6685L49.6363 98.5361L47.2816 102.874C46.8478 103.555 46.6619 104.113 46.6619 104.423C46.6619 104.733 46.7858 104.919 47.0957 104.919C47.2816 104.919 47.4675 104.857 47.6534 104.795C47.9012 104.733 48.2111 104.547 48.7068 104.299C49.2026 104.051 49.5124 103.927 49.6983 103.803L49.1406 105.538C48.6449 105.848 48.0252 106.22 47.2816 106.592C46.538 106.964 45.9802 107.15 45.6084 107.15C45.2366 107.15 44.9268 107.026 44.6789 106.84C44.4311 106.592 44.3071 106.344 44.3071 106.034C44.3071 105.476 44.6789 104.609 45.4845 103.37L45.2366 103.184C43.7494 104.795 42.634 105.91 41.9524 106.468C41.2707 107.026 40.775 107.335 40.4651 107.335C40.1553 107.335 39.9074 107.212 39.7215 107.026C39.5356 106.84 39.4117 106.53 39.4117 106.22C39.4117 105.848 39.5356 105.352 39.8455 104.671C40.1553 103.989 40.4651 103.37 40.837 102.874L40.5891 102.75C40.2792 103.122 39.9074 103.555 39.4737 104.051C39.0399 104.609 38.5442 105.105 38.1104 105.538C37.6146 106.034 37.1809 106.406 36.6851 106.716C36.1894 107.026 35.7556 107.15 35.3218 107.15C34.8261 107.15 34.4543 107.026 34.0825 106.716C33.7107 106.468 33.5248 106.034 33.5248 105.476C33.5248 105.043 33.5868 104.671 33.7107 104.423L35.6937 103.493C35.6317 103.803 35.5697 104.051 35.5697 104.299C35.5697 104.795 35.7556 105.043 36.1274 105.043C36.6232 105.043 37.4287 104.485 38.4822 103.308C39.1638 102.564 39.7835 101.82 40.3412 101.201C40.8989 100.581 41.3947 99.8993 41.9524 99.1557C42.2622 98.4741 42.8199 97.6685 43.3157 96.801ZM33.7107 103.803L33.153 105.538C32.4713 106.034 31.7277 106.406 30.7982 106.778C29.8687 107.088 29.0012 107.273 28.1336 107.273C27.328 107.273 26.5844 107.088 25.9028 106.654C25.2211 106.282 24.7254 105.662 24.3536 104.919C23.9818 104.175 23.7959 103.246 23.7959 102.192C23.7959 100.643 24.1677 99.0318 24.8493 97.5446C25.531 95.9954 26.4605 94.6321 27.6379 93.4547C28.7533 92.2774 29.9926 91.2859 31.294 90.6042C32.5953 89.9226 33.8346 89.5508 35.012 89.5508C36.0035 89.5508 36.8091 89.7987 37.3668 90.3564C37.9245 90.9141 38.2343 91.5337 38.2343 92.2774C38.2343 93.021 37.9245 93.7026 37.3668 94.4462C36.8091 95.1898 36.0035 95.9334 34.8881 96.6151L33.091 95.5616C33.7727 95.1279 34.4543 94.5701 35.074 93.8885C35.6937 93.2069 36.0655 92.6492 36.0655 92.1534C36.0655 91.9055 36.0035 91.6577 35.7556 91.4098C35.5697 91.2239 35.2599 91.1 34.8261 91.1C34.0205 91.1 33.153 91.4098 32.1615 92.0915C31.17 92.7731 30.1785 93.6406 29.249 94.7561C28.3195 95.8715 27.5759 97.0488 27.0182 98.4121C26.4605 99.7134 26.1507 101.015 26.1507 102.254C26.1507 103.37 26.3985 104.175 26.8943 104.733C27.39 105.291 28.1336 105.538 29.1871 105.538C29.8687 105.538 30.6123 105.352 31.4179 105.043C32.2854 104.671 33.0291 104.237 33.7107 103.803Z" fill="white"/>
<path fill-rule="evenodd" clip-rule="evenodd" d="M102.989 76.0416C103.485 75.9177 103.733 75.1121 103.485 74.2446C103.237 73.3771 102.68 72.7574 102.184 72.8813C101.688 73.0052 101.44 73.8108 101.688 74.6784C101.936 75.5459 102.494 76.1656 102.989 76.0416ZM98.9616 74.1826C98.4659 74.2446 98.156 75.0502 98.3419 75.9177C98.4659 76.7853 99.0236 77.4669 99.5193 77.343C100.015 77.281 100.325 76.4754 100.139 75.6079C99.9531 74.7403 99.4573 74.0587 98.9616 74.1826ZM92.6409 73.1912C93.0747 73.439 93.0747 74.2446 92.6409 75.0502C92.2072 75.8558 91.4635 76.2895 91.0298 76.0416C90.596 75.7938 90.596 74.9882 91.0298 74.1826C91.5255 73.377 92.2072 72.9433 92.6409 73.1912ZM95.4914 73.6869C95.9872 73.7489 96.297 74.5544 96.1731 75.422C96.0491 76.2895 95.5534 76.9712 95.0577 76.9092C94.5619 76.8472 94.2521 76.0417 94.376 75.1741C94.5 74.3066 94.9957 73.6249 95.4914 73.6869ZM104.539 70.9603C104.91 70.5885 105.716 70.8364 106.336 71.4561C106.955 72.0757 107.203 72.8813 106.831 73.2531C106.46 73.6249 105.654 73.3771 105.034 72.7574C104.415 72.0757 104.167 71.2702 104.539 70.9603ZM90.2242 70.9603C89.8524 70.5885 89.0468 70.8364 88.4271 71.4561C87.8075 72.0757 87.5596 72.8813 87.9314 73.2531C88.3032 73.6249 89.1088 73.3771 89.7285 72.7574C90.3481 72.0757 90.596 71.2702 90.2242 70.9603ZM85.4527 71.8898C84.957 69.5351 86.6301 67.1803 89.0468 68.0478C90.3481 68.5436 91.4636 69.9688 93.0127 71.0843C95.6154 73.0672 99.3954 73.1912 102.184 71.3941C103.795 70.3406 104.972 68.9154 106.336 68.4197C108.752 67.5521 110.364 69.9069 109.93 72.2616C107.389 84.3453 87.7455 82.92 85.4527 71.8898ZM78.1405 65.6311C79.132 72.7574 82.4783 78.0246 88.0553 81.4328C83.036 76.8472 80.1855 71.58 79.5038 65.6311C79.5038 65.6311 79.0081 65.6311 78.1405 65.6311ZM114.02 65.817C116.436 73.9348 113.462 79.7597 104.972 83.2919C114.33 79.9456 117.676 74.1207 115.135 65.817C115.135 65.817 114.763 65.817 114.02 65.817ZM86.692 82.0525C81.3009 78.5823 78.0166 72.5095 76.7773 63.896C103.237 63.958 116.498 63.958 116.498 63.958C116.932 68.0479 118.172 69.1013 117.242 73.1292C116.251 77.7148 113.71 80.999 109.62 83.044C102.742 86.5761 93.2606 86.3283 86.692 82.0525ZM70.2707 42.8271C73.555 42.8271 76.1576 44.7481 76.1576 47.1648C76.1576 49.5815 73.493 51.5025 70.2707 51.5025C66.9864 51.5025 64.3838 49.5815 64.3838 47.1648C64.3838 44.7481 66.9864 42.8271 70.2707 42.8271ZM102.494 62.099C103.361 52.4321 98.5278 41.7736 88.4271 39.3569C83.8415 38.2415 73.555 38.1176 68.7835 39.233C61.967 40.8441 57.5673 45.6156 55.5224 53.4855C53.9113 58.7527 54.469 64.3918 57.2575 70.2787C59.7982 66.9324 63.1444 65.817 67.4202 66.8085C64.0739 68.7295 62.3388 70.8984 62.2769 73.3771C63.5782 73.6869 66.3048 73.7489 70.5185 73.6249C69.8989 76.1036 68.3497 77.8387 65.809 78.9541C70.8284 81.9905 76.7773 82.982 83.5317 81.8046C77.7687 77.219 75.0422 70.6505 75.29 62.099L95.8013 62.1609C96.235 57.2655 95.2436 52.8658 92.7649 48.9619C92.7649 48.9619 93.9422 48.3422 96.235 47.1648C98.8377 50.8829 99.9531 55.9022 99.5813 62.1609L102.494 62.099Z" fill="#EA3D2F"/>
<path fill-rule="evenodd" clip-rule="evenodd" d="M80.4337 37.3742C78.4508 37.3742 77.4593 37.3742 77.4593 37.3742C74.4848 37.684 72.0061 37.0643 70.0852 35.4532C68.1022 33.7801 65.4376 33.1604 62.1533 33.5942C65.0038 32.6027 68.1022 32.9745 71.2625 34.6476C72.6258 35.5152 74.175 36.0109 75.7862 36.1968C74.9806 32.1069 73.3075 29.3804 70.7668 28.0791C73.3694 28.6368 75.4763 30.6197 77.0255 34.1519C78.079 30.5578 79.5042 27.5833 81.3013 25.2905C81.3013 25.2905 81.735 25.6623 82.6645 26.4679C80.4957 30.0001 79.5662 32.9745 79.814 35.2673C81.6731 31.4253 84.2137 29.3804 87.436 29.0705C84.1518 30.3099 82.1688 32.6647 81.4872 36.1348C86.6305 35.3912 88.7993 31.3014 94.9341 33.4702C87.6839 32.4168 86.9403 37.684 80.4337 37.3742Z" fill="#2FA84F"/>
<path fill-rule="evenodd" clip-rule="evenodd" d="M50.999 56.7699C52.2383 62.6568 53.4157 66.5608 54.5311 68.5437C51.061 66.9326 48.3344 65.4453 46.3514 64.144C45.4219 63.0286 43.8108 60.1161 41.456 55.4686C42.3235 58.443 43.6249 61.1076 45.298 63.5243C44.3065 63.0286 41.456 61.2935 31.6651 56.3981C31.6651 56.3981 36.0648 59.0007 44.8642 64.268C41.8278 64.206 39.2252 64.5778 37.0563 65.3214C40.3406 64.8257 43.2531 64.7017 45.7318 64.7637C45.8557 64.5778 48.5823 66.2509 53.9734 69.7831C49.7596 70.0929 45.9177 71.0224 42.4475 72.6336C45.1121 71.7041 49.078 70.8985 54.3452 70.0929C53.5396 72.7575 53.6636 74.7405 54.6551 76.1657C53.6016 77.4051 53.1059 79.2021 53.1678 81.6188C51.061 81.1851 50.0075 80.9992 50.0075 80.9992C49.8836 80.0077 50.3173 78.7683 51.3088 77.2192C46.2275 77.2811 41.9517 75.9798 38.4816 73.3152C38.6675 72.5096 39.597 71.5182 41.2701 70.4647C37.676 68.9775 35.1353 67.3663 33.5861 65.6312C33.5861 65.0735 34.0819 64.5158 35.2592 63.8962C31.1074 59.7443 28.5668 56.3981 27.6992 53.9814C33.5861 53.8574 37.7999 54.3532 40.2166 55.4686C39.9688 54.1673 40.0927 53.4237 40.5265 53.1758C43.9347 53.7955 46.6613 55.2207 48.7682 57.3896C48.6442 55.1587 49.016 53.8574 49.9455 53.4237C50.7511 53.6096 51.6806 54.0433 52.7341 54.9109C52.5482 58.443 52.5482 60.7358 52.7341 61.7893C51.6187 58.443 50.999 56.7699 50.999 56.7699Z" fill="#2FA84F"/>
<path fill-rule="evenodd" clip-rule="evenodd" d="M105.655 57.8233C104.477 59.3724 103.92 60.116 103.92 60.116C103.92 54.539 102.68 49.8914 100.016 46.0494C101.131 43.6947 102.123 42.2074 103.114 41.5258C104.229 42.0215 105.035 42.9511 105.531 44.3143C107.204 40.5963 109.125 38.3035 111.17 37.374C111.666 37.8078 112.161 38.3655 112.533 39.171C115.941 36.1966 119.411 34.2136 122.944 33.2222C122.758 39.3569 122.138 43.2609 121.085 45.058C122.138 45.1819 123.006 45.4298 123.625 45.6776C123.006 48.4662 121.394 51.0688 118.792 53.4855C120.217 53.2996 121.58 53.6714 122.758 54.6629C121.89 57.0177 119.721 59.4344 116.127 62.099C108.815 62.099 105.159 62.099 105.159 62.099C106.708 59.5583 107.452 58.319 107.452 58.319C110.798 57.2655 114.578 56.398 118.854 55.6544C114.702 55.8403 111.046 56.46 107.824 57.4515C110.86 52.4941 112.409 50.0154 112.409 50.0154C114.206 49.0239 117.057 47.9085 120.899 46.6071C117.614 47.1648 114.95 47.9704 112.905 49.0239C118.358 39.7288 120.961 35.6389 120.713 36.6304C114.95 44.5622 112.037 48.5281 112.037 48.5281C111.913 43.6327 111.604 40.7202 111.108 39.7907C111.356 46.1114 111.48 49.2717 111.48 49.2717C108.133 54.3531 106.398 56.8318 106.336 56.6459C105.283 50.697 104.353 46.793 103.486 44.8101C104.725 49.2098 105.407 53.5475 105.655 57.8233Z" fill="#2FA84F"/>
<path fill-rule="evenodd" clip-rule="evenodd" d="M117.8 63.9585C118.048 71.7664 123.129 71.8284 122.076 80.5038C124.988 74.3071 120.65 71.2707 119.907 66.809C122.571 67.6146 124.616 69.5975 126.165 72.6959C126.165 69.9693 124.244 67.4287 120.402 65.1978C123.253 65.3837 126.165 66.3133 128.954 67.9244C129.016 67.9864 129.388 67.6146 129.945 66.747C128.892 65.8795 127.343 64.95 125.236 63.9585C125.236 63.9585 122.757 63.9585 117.8 63.9585Z" fill="#2FA84F"/>
<path fill-rule="evenodd" clip-rule="evenodd" d="M57.6922 74.7404C57.5063 74.7404 57.3204 74.8644 57.3204 75.0503C57.3204 75.2362 57.4443 75.3601 57.6922 75.3601C57.8781 75.3601 58.064 75.2362 58.064 75.0503C58.064 74.8644 57.8781 74.7404 57.6922 74.7404ZM58.8696 75.546C58.6217 75.546 58.3738 75.7939 58.3738 76.0417C58.3738 76.3516 58.6217 76.5375 58.8696 76.5375C59.1174 76.5375 59.3653 76.2896 59.3653 76.0417C59.3653 75.7939 59.1794 75.546 58.8696 75.546ZM58.9935 74.8024C62.8975 74.6785 61.4102 79.2021 58.6217 77.529C61.3483 77.3431 60.9145 75.4221 58.9935 74.8024ZM57.9401 72.9434C57.0105 72.8814 56.3289 72.1998 55.9571 71.0224C54.8417 72.8194 55.0276 74.6785 56.4528 76.4755C55.2135 77.6529 54.8417 79.6359 55.4614 82.4244C55.7092 81.185 56.7007 80.1316 58.4358 79.2641C59.8611 82.3005 62.5876 83.6018 66.5535 83.106C64.2607 82.7342 63.0214 81.0611 62.7735 78.0867C64.4466 78.3965 67.1112 77.0952 69.2181 74.7404C65.9339 74.8644 62.6496 74.4306 61.5961 74.3067C61.3483 71.704 61.906 69.907 64.8184 67.4902C60.9765 68.1719 58.3738 69.783 57.9401 72.9434Z" fill="#F3A72E"/>
<path fill-rule="evenodd" clip-rule="evenodd" d="M27.1418 52.8043H28.9389C39.4114 33.7183 58.9931 21.1389 81.6112 21.1389C95.368 21.1389 108.071 25.9104 118.296 33.9662L119.721 33.0367C109.187 24.5472 95.9257 19.4658 81.6112 19.4658C58.1875 19.5278 37.8002 32.9128 27.1418 52.8043ZM142.339 86.2667C142.339 85.6471 142.339 85.0894 142.339 84.4697C142.339 66.4991 135.151 50.2637 123.625 38.7377L123.935 36.8167C136.205 48.6525 143.889 65.6316 143.889 84.4697C143.889 85.0894 143.889 85.6471 143.889 86.2667H142.339ZM19.2719 86.2667H20.8211C20.8211 85.6471 20.8211 85.0894 20.8211 84.4697C20.8211 74.0592 23.1139 64.5162 27.3897 55.8407L26.5221 54.1056C21.7506 63.2149 19.21 73.3775 19.21 84.4697C19.21 85.0274 19.21 85.6471 19.2719 86.2667Z" fill="#2FA84F"/>
<path d="M145.314 74.9884L144.88 72.3238L145.747 72.1999C146.181 72.1379 146.491 71.952 146.677 71.7041C146.863 71.4563 146.863 71.0845 146.739 70.4648L145.624 64.0821L147.916 63.7103C147.978 63.9582 148.102 64.1441 148.288 64.2061C148.474 64.2681 148.846 64.2681 149.404 64.2061L154.857 63.2766C155.352 63.2146 155.724 63.0907 155.848 62.9667C156.034 62.8428 156.034 62.6569 156.034 62.409L158.327 62.0372L159.07 66.3749L156.53 66.8087C156.468 66.5608 156.344 66.3749 156.158 66.313C155.972 66.251 155.6 66.251 155.105 66.313L148.784 67.4284L149.28 70.155L155.538 68.9776C156.034 68.9156 156.406 68.7917 156.53 68.6677C156.716 68.5438 156.716 68.3579 156.716 68.11L159.256 67.6763L160 71.952L157.707 72.3238C157.583 72.076 157.459 71.952 157.335 71.89C157.211 71.8281 156.84 71.8281 156.344 71.952L150.891 72.8815C150.395 72.9435 150.023 73.1294 149.899 73.4392C149.775 73.6871 149.713 73.9969 149.775 74.2448L145.314 74.9884ZM141.534 53.6096L139.799 49.5818L141.967 48.6522C142.091 48.9001 142.215 49.0241 142.401 49.0241C142.587 49.086 142.897 48.9621 143.331 48.7762L148.784 46.4214C149.156 46.2355 149.404 46.1116 149.527 45.9257C149.651 45.7398 149.651 45.5539 149.527 45.368L151.696 44.4385L153.431 48.4663L151.263 49.3959C151.139 49.148 151.015 49.0241 150.829 49.0241C150.643 48.9621 150.395 49.086 149.961 49.21L147.235 50.3873L150.271 51.5647C150.643 51.6887 150.891 51.8126 151.077 51.8126C151.263 51.8126 151.387 51.8126 151.51 51.7506C151.882 51.5647 152.006 51.3168 151.82 50.8831L153.989 49.9536L155.724 53.9814L153.555 54.911C153.431 54.6631 153.308 54.5392 153.122 54.5392C152.936 54.4772 152.688 54.6011 152.254 54.7251L146.801 57.0798C146.367 57.2657 146.119 57.4516 145.995 57.5756C145.871 57.7615 145.871 57.9474 145.995 58.1333L143.826 59.0628L142.091 55.0349L144.26 54.1054C144.384 54.3533 144.508 54.4772 144.694 54.4772C144.88 54.4772 145.19 54.4152 145.624 54.2293L148.226 53.1139L145.376 51.9365C145.004 51.8126 144.694 51.6887 144.57 51.6887C144.384 51.6267 144.198 51.6887 144.012 51.7506C143.579 51.9365 143.455 52.2464 143.641 52.6801L141.534 53.6096ZM141.658 29.5043L147.483 37.3742L145.624 38.7374C145.5 38.5515 145.314 38.4276 145.128 38.4276C144.942 38.4276 144.694 38.5515 144.322 38.7994L139.675 42.2076C139.241 42.5175 138.993 42.7653 138.869 42.9512C138.807 43.1371 138.807 43.385 138.993 43.5709L137.134 44.9342L134.531 41.3401L136.39 39.9768C136.576 40.2247 136.762 40.2866 136.948 40.2866C137.134 40.2866 137.506 40.1007 137.94 39.7909L143.269 35.825L141.782 33.842L136.143 37.9938C135.213 38.6755 134.407 38.9853 133.602 38.9853C132.796 38.9853 132.177 38.6135 131.619 37.8699C131.309 37.4361 131.061 36.9404 130.875 36.3827L132.734 35.0194C132.796 35.1433 132.858 35.2053 132.92 35.3292C133.168 35.6391 133.354 35.825 133.602 35.8869C133.85 35.9489 134.16 35.763 134.655 35.3912L139.241 31.983C139.613 31.7351 139.799 31.4873 139.861 31.3014C139.923 31.1155 139.861 30.9295 139.737 30.8056L141.658 29.5043ZM123.377 29.1325L120.155 26.1581L121.766 24.423C121.952 24.6089 122.138 24.6708 122.324 24.6089C122.51 24.5469 122.82 24.299 123.191 23.9272L126.971 19.8993C127.343 19.4656 127.591 19.2177 127.591 19.0318C127.653 18.8459 127.529 18.66 127.343 18.4741L128.954 16.739L136.452 23.6794L134.841 25.4144C134.655 25.2285 134.469 25.1666 134.283 25.2285C134.098 25.2905 133.85 25.4764 133.416 25.9102L129.636 29.9381C129.264 30.3099 129.078 30.6197 129.016 30.8056C128.954 30.9915 129.016 31.1774 129.202 31.3633L127.591 33.0984L124.369 30.124L125.98 28.3889C126.166 28.5748 126.352 28.6368 126.538 28.5748C126.723 28.5128 126.971 28.2649 127.343 27.8931L131.867 23.0597L129.822 21.1387L125.298 25.9721C124.926 26.344 124.741 26.6538 124.679 26.9017C124.617 27.0876 124.679 27.2735 124.864 27.4594L123.377 29.1325ZM114.454 13.3928L116.933 14.756L117.18 14.3223C117.49 13.7026 117.614 13.2069 117.552 12.835C117.49 12.4632 117.242 12.1534 116.871 11.9055C116.437 11.6577 116.065 11.6577 115.693 11.8436C115.321 12.0295 115.012 12.4632 114.64 13.0829L114.454 13.3928ZM113.215 15.5616L112.657 16.5531C112.285 17.2347 112.161 17.7305 112.161 18.1023C112.223 18.4741 112.409 18.7839 112.843 19.0318C113.215 19.2177 113.586 19.2797 113.958 19.2177C114.33 19.0938 114.64 18.7839 114.95 18.2882L115.012 18.1643L117.552 19.5895L116.127 22.1921C115.383 22.3161 114.578 22.3161 113.834 22.1921C113.029 22.0682 112.347 21.8203 111.603 21.3866C110.24 20.6429 109.435 19.7754 109.125 18.7839C108.815 17.7924 109.063 16.677 109.806 15.2518L111.913 11.4098C112.657 10.0465 113.524 9.17897 114.516 8.9311C115.507 8.62126 116.685 8.86913 118.048 9.61274C119.349 10.3563 120.155 11.2239 120.403 12.1534C120.651 13.1449 120.403 14.3223 119.659 15.6856L118.172 18.4121L113.215 15.5616ZM100.449 16.1813L96.2355 14.88L96.9171 12.6491C97.165 12.7111 97.3509 12.7111 97.5368 12.5252C97.6607 12.4013 97.8466 12.0295 97.9706 11.5337L99.9535 5.21305C99.5817 5.08912 99.2719 5.08912 99.024 5.27502C98.7761 5.39895 98.5902 5.70879 98.4663 6.20453L98.1565 7.25798L95.8017 6.51437L97.2889 1.74287L107.204 4.84124L105.716 9.61274L103.3 8.86913L103.61 7.81568C103.734 7.31994 103.796 6.94814 103.672 6.70027C103.548 6.4524 103.3 6.2665 102.928 6.14256L100.945 12.4632C100.759 12.959 100.697 13.3308 100.759 13.5167C100.821 13.7026 100.945 13.8265 101.131 13.9505L100.449 16.1813ZM85.1433 10.6662L85.2053 13.021L81.6111 13.0829V11.8436C81.2393 12.3393 80.8056 12.7111 80.3098 12.959C79.8141 13.2069 79.1944 13.3308 78.3269 13.3308C77.4593 13.3308 76.7157 13.0829 76.22 12.5252C75.7242 11.9675 75.4144 11.1619 75.4144 10.1704V9.17897C75.4144 8.00159 75.7862 7.07207 76.5298 6.39043C77.3354 5.70879 78.3269 5.39895 79.6282 5.33698C79.8761 5.33698 80.1859 5.33698 80.4957 5.39895C80.8056 5.39895 81.1154 5.46092 81.3633 5.52289L81.3013 3.7878C81.3013 3.35403 81.1774 3.04419 80.8675 2.85829C80.6197 2.67238 80.2479 2.61042 79.8761 2.61042C79.0705 2.61042 78.6367 3.10616 78.6987 3.9737V4.40747L75.7862 4.46944L75.7242 1.37107C76.4678 0.937294 77.1495 0.627457 77.8931 0.379587C78.5747 0.131717 79.3184 0.00778217 80 0.00778217C81.4252 -0.0541853 82.5407 0.255652 83.2223 0.875327C83.9039 1.495 84.2757 2.48648 84.3377 3.84977L84.4617 9.24094C84.4617 9.86061 84.5856 10.2944 84.7095 10.4803C84.8335 10.6042 84.9574 10.6662 85.1433 10.6662ZM81.4252 9.55077L81.3633 7.50585H80.1859C79.6282 7.50585 79.2564 7.69175 79.0085 7.93962C78.7606 8.24946 78.6367 8.55929 78.6367 8.9311V9.79864C78.6367 10.1085 78.7606 10.3563 78.9465 10.4803C79.1324 10.6662 79.4423 10.7282 79.6902 10.7282C80.3098 10.7282 80.7436 10.6042 80.9915 10.3563C81.3013 10.2324 81.4252 9.92258 81.4252 9.55077ZM63.2688 2.36255L66.8629 1.495L67.4206 3.72583C67.1727 3.7878 66.9868 3.84977 66.8629 3.9737C66.739 4.09764 66.615 4.22157 66.5531 4.40747L65.1278 7.50585C65.4996 7.44388 65.8094 7.44388 66.1193 7.50585C66.4291 7.50585 66.739 7.62978 66.9868 7.81568C67.2347 8.00159 67.4826 8.24946 67.7304 8.55929C67.9163 8.86913 68.1022 9.36487 68.2881 9.92258L68.474 10.7901C68.598 11.2239 68.7219 11.5337 68.7839 11.6577C68.9078 11.7816 69.0937 11.8436 69.3416 11.7816L69.8993 14.0124L66.677 14.818C66.5531 14.6321 66.4291 14.4462 66.3052 14.1983C66.1813 13.9505 66.1193 13.5787 65.9334 13.021L65.5616 11.4098C65.4376 10.7901 65.1898 10.3563 64.8799 10.1085C64.5701 9.86061 64.1363 9.79864 63.5166 9.98454L62.6491 10.1704L63.0829 12.0295C63.2068 12.4632 63.3307 12.7731 63.4547 12.897C63.5786 13.021 63.7645 13.0829 64.0124 13.021L64.5701 15.2518L60.2943 16.3052L59.7366 14.0744C59.9845 14.0124 60.1084 13.8885 60.1704 13.7026C60.2324 13.5167 60.2324 13.2069 60.1084 12.7731L58.7452 7.25798C58.6212 6.76224 58.4973 6.4524 58.3114 6.2665C58.1874 6.14256 58.0015 6.08059 57.7537 6.14256L57.196 3.91173L61.4717 2.85829L62.0294 5.08911C61.8435 5.15108 61.6576 5.27502 61.5957 5.46092C61.5337 5.64682 61.5337 6.01863 61.6576 6.57633L62.0914 8.31142L63.2688 5.64682C63.3927 5.33698 63.5166 5.08911 63.5166 4.84124C63.5166 4.59337 63.5167 4.3455 63.4547 4.09763L63.2688 2.36255ZM50.1936 21.0148L46.3517 23.1216L45.2362 21.0767C45.4221 20.9528 45.5461 20.8289 45.6081 20.581C45.6081 20.3951 45.5461 20.0852 45.2982 19.6515L42.4477 14.4462C42.2618 14.0744 42.0759 13.8265 41.89 13.7646C41.7041 13.7026 41.5182 13.7026 41.3323 13.8265L40.2169 11.7816L44.0589 9.67471L45.1743 11.7196C44.9264 11.8436 44.8025 11.9675 44.8025 12.1534C44.8025 12.3393 44.8644 12.5872 45.0503 12.959L46.4756 15.5616L47.3431 12.4013C47.4671 12.0295 47.529 11.7816 47.529 11.5957C47.529 11.4098 47.4671 11.2859 47.4051 11.1619C47.2192 10.7901 46.9094 10.7282 46.5376 10.9141L45.4222 8.86913L49.2641 6.76224L50.3795 8.80716C50.1936 8.9311 50.0697 9.05503 50.0077 9.24094C50.0077 9.42684 50.0697 9.67471 50.2556 10.0465L53.1061 15.2518C53.354 15.6856 53.5399 15.9334 53.6638 15.9954C53.8497 16.1193 54.0356 16.0574 54.2215 15.9954L55.3369 18.0403L51.495 20.1472L50.5035 18.1643C50.7514 18.0403 50.8133 17.9164 50.8133 17.6685C50.8133 17.4826 50.6894 17.1728 50.5035 16.801L49.1402 14.3223L48.2107 17.2967C48.0868 17.6685 48.0248 17.9783 48.0248 18.1643C48.0248 18.3502 48.0248 18.5361 48.1487 18.66C48.3966 19.0938 48.7064 19.1557 49.0782 18.9698L50.1936 21.0148ZM40.7746 32.8505L37.3664 35.701L35.8792 33.904C36.0651 33.7181 36.127 33.5322 36.0651 33.2843C36.0031 33.0364 35.7552 32.6646 35.3215 32.1689L29.3726 25.0426C29.0627 24.6708 28.8149 24.423 28.567 24.299C28.3191 24.1751 28.1332 24.1751 27.8854 24.361L26.3981 22.5639L29.0627 20.3331L29.6824 20.8908C29.7444 20.3951 29.9303 19.9613 30.1162 19.5275C30.3021 19.0938 30.6739 18.66 31.2316 18.1643C31.9132 17.5446 32.7188 17.3587 33.6483 17.4826C34.5159 17.6685 35.4454 18.2882 36.4369 19.4656L39.3493 22.9357C40.4028 24.1751 40.8985 25.2285 40.8985 26.0961C40.8985 26.9636 40.5887 27.7692 39.7831 28.3889C39.2254 28.8227 38.7916 29.1325 38.4198 29.3184C38.048 29.5043 37.6143 29.5663 37.1185 29.6282L37.6762 30.3099C38.048 30.7436 38.2959 30.9915 38.6057 31.1155C38.8536 31.2394 39.1015 31.1774 39.2874 30.9915L40.7746 32.8505ZM36.4988 24.5469L34.33 21.9443C33.8342 21.3246 33.4005 20.9528 33.0287 20.8288C32.6569 20.7049 32.285 20.8288 31.8513 21.1387C31.5414 21.3866 31.2936 21.8823 31.1077 22.502L35.5693 27.8312C36.251 27.6453 36.8087 27.4594 37.1185 27.2115C37.4903 26.9017 37.6143 26.5299 37.4903 26.0961C37.3664 25.6623 36.9946 25.1666 36.4988 24.5469ZM21.3788 36.7545L24.1673 38.7994C24.725 39.2332 25.1588 39.4191 25.5306 39.4191C25.9024 39.4191 26.2122 39.2332 26.5221 38.7994C26.8319 38.4276 26.8939 38.0558 26.8319 37.684C26.708 37.3122 26.3981 36.9404 25.8404 36.5686L23.0519 34.5237C22.4942 34.0899 22.0604 33.904 21.6886 33.904C21.3168 33.904 21.007 34.0899 20.6971 34.5237C20.3873 34.8955 20.3253 35.3292 20.3873 35.6391C20.5112 35.9489 20.8211 36.3207 21.3788 36.7545ZM17.7847 34.5856L18.4663 35.0814C18.3424 34.7096 18.3424 34.2758 18.4663 33.78C18.5902 33.2843 18.7761 32.8505 19.024 32.4787C19.8296 31.3633 20.6971 30.8056 21.5647 30.6817C22.4942 30.5577 23.4857 30.9295 24.5391 31.7351L28.0093 34.2758C29.0627 35.0814 29.6824 35.9489 29.8683 36.8784C30.0542 37.8079 29.6204 38.9853 28.629 40.2866C27.6375 41.588 26.708 42.3316 25.7165 42.4555C24.725 42.5794 23.7335 42.2696 22.6801 41.526L17.5988 37.746C16.6692 37.0643 15.9256 36.3827 15.3679 35.825C14.8722 35.2673 14.5624 34.7096 14.4384 34.1519C14.3145 33.5942 14.3765 33.0984 14.5624 32.5407C14.7483 31.983 15.1201 31.3633 15.6158 30.7436C16.0496 30.1859 16.2355 29.7522 16.2355 29.4423C16.2355 29.1325 16.0496 28.8846 15.6778 28.5748L17.0411 26.7158C17.2889 26.8397 17.4748 26.9636 17.6607 27.0256C17.8466 27.1495 18.0325 27.2735 18.1565 27.3354C18.4043 27.5213 18.6522 27.7692 18.7761 27.9551C18.962 28.203 19.024 28.5128 18.962 28.8227C18.962 29.1945 18.8381 29.6282 18.5902 30.124C18.3424 30.6197 17.9706 31.2394 17.4748 31.921C16.6692 33.0364 16.7932 33.904 17.7847 34.5856ZM20.945 47.3509L23.0519 48.3424L21.5027 51.6267L20.3873 51.069C20.6352 51.6267 20.7591 52.1844 20.7591 52.7421C20.7591 53.2998 20.5732 53.9195 20.2014 54.6631C19.8296 55.4687 19.2719 55.9644 18.5283 56.1503C17.7847 56.3362 16.9791 56.2123 16.0496 55.7785L15.182 55.3447C14.1286 54.849 13.4469 54.0434 13.261 53.0519C13.0132 52.0605 13.1991 50.945 13.7568 49.8296C13.8807 49.5818 14.0046 49.3339 14.1905 49.086C14.3765 48.8382 14.5004 48.5903 14.6863 48.3424L13.1371 47.5988C12.7653 47.4129 12.3935 47.4129 12.0837 47.5368C11.7738 47.7227 11.5879 47.9706 11.402 48.2804C11.0302 49.0241 11.2781 49.5818 12.0217 49.9536L12.3935 50.1395L11.0922 52.866L8.30364 51.5028C8.30364 50.6352 8.30364 49.8916 8.42758 49.148C8.55151 48.4044 8.73741 47.7227 9.04725 47.1031C9.66692 45.8017 10.4105 44.9962 11.2781 44.6244C12.1456 44.3145 13.1991 44.4385 14.4384 44.9962L19.2719 47.3509C19.8296 47.5988 20.2634 47.7227 20.4493 47.6608C20.6971 47.6608 20.883 47.5368 20.945 47.3509ZM18.2804 50.2014L16.4833 49.3339L15.9256 50.3873C15.6778 50.8831 15.6778 51.2549 15.8017 51.6267C15.9256 51.9985 16.1735 52.2464 16.5453 52.4323L17.2889 52.8041C17.5368 52.928 17.8466 52.928 18.0945 52.8041C18.3424 52.6801 18.5283 52.4942 18.6522 52.2464C18.9001 51.6887 19.024 51.2549 18.9001 50.945C18.7761 50.6352 18.5902 50.3873 18.2804 50.2014ZM5.57707 68.11L5.45314 68.6058C5.3292 69.2254 5.3292 69.6592 5.57707 69.9691C5.76297 70.2789 6.25871 70.4648 7.00232 70.6507C7.68396 70.8366 8.24167 70.7746 8.61348 70.6507C8.98528 70.4648 9.23315 70.093 9.35709 69.4113L9.48102 68.9156L5.57707 68.11ZM6.32068 64.7638L10.1627 65.6313L10.2866 65.1356C10.4105 64.4539 10.3486 64.0202 10.1007 63.7103C9.85283 63.4005 9.35709 63.1526 8.67544 63.0287C7.93184 62.8428 7.4361 62.9048 7.12626 63.0907C6.81642 63.2766 6.56855 63.6484 6.44462 64.33L6.32068 64.7638ZM0 67.4904L0.99148 62.9667L2.8505 63.4005C2.8505 63.5244 2.8505 63.6484 2.97444 63.8343C3.09837 64.0202 3.28428 64.1441 3.53215 64.2061L3.84198 64.2681L4.02788 63.4625C4.39969 61.7274 5.01936 60.612 5.88691 60.1162C6.75445 59.5585 7.93184 59.4966 9.54299 59.8684C11.1541 60.2402 12.2076 60.7979 12.7033 61.5415C13.261 62.3471 13.323 63.4625 13.0132 64.8877C12.9512 65.1356 12.8892 65.3835 12.7653 65.6313C12.6414 65.8792 12.5794 66.0651 12.5174 66.189L13.261 66.3749C13.5709 66.4369 13.8187 66.4369 14.0666 66.313C14.3145 66.251 14.4384 66.0651 14.5004 65.8792L16.4214 66.313L15.3679 71.0845L13.4469 70.6507C13.5089 70.4648 13.4469 70.2789 13.261 70.093C13.0751 69.9071 12.8892 69.7831 12.5794 69.7212L11.8358 69.5353C11.8358 69.6592 11.8978 69.9071 11.8358 70.155C11.8358 70.4648 11.7738 70.7127 11.7119 70.9605C11.402 72.3858 10.8443 73.3773 10.0387 73.873C9.23315 74.3687 8.05577 74.4307 6.44462 74.0589C4.83346 73.6871 3.78001 73.1294 3.22231 72.2619C2.6646 71.4563 2.60263 70.155 2.97444 68.4199L3.16034 67.6143L2.8505 67.5523C2.60263 67.4904 2.35476 67.4904 2.23083 67.6143C2.04493 67.7382 1.98296 67.8622 1.92099 67.9861L0 67.4904Z" fill="#3E4345"/>
</svg>
